<mxfile host="app.diagrams.net" modified="2020-12-15T11:03:12.816Z" agent="5.0 (Windows NT 10.0; Win64; x64) AppleWebKit/537.36 (KHTML, like Gecko) Chrome/87.0.4280.88 Safari/537.36" etag="v3VGg3fuJjMcbUlB3OWj" version="14.0.1" type="github">
  <diagram id="7tlqybCFp6TcgFY6mefb" name="Page-1">
    <mxGraphModel dx="1955" dy="3096" grid="1" gridSize="10" guides="1" tooltips="1" connect="1" arrows="1" fold="1" page="1" pageScale="1" pageWidth="850" pageHeight="1100" math="0" shadow="0">
      <root>
        <mxCell id="0" />
        <mxCell id="1" parent="0" />
        <mxCell id="JG15J3TtPiXP2V4Br-xX-1" value="" style="rounded=0;whiteSpace=wrap;html=1;fontColor=#000000;align=left;fillColor=none;dashed=1;" parent="1" vertex="1">
          <mxGeometry x="1282.5" y="265" width="171" height="80" as="geometry" />
        </mxCell>
        <mxCell id="JG15J3TtPiXP2V4Br-xX-2" value="" style="rounded=0;html=1;jettySize=auto;orthogonalLoop=1;fontSize=11;endArrow=block;endFill=0;endSize=8;strokeWidth=1;shadow=0;labelBackgroundColor=none;edgeStyle=orthogonalEdgeStyle;entryX=0.5;entryY=0;entryDx=0;entryDy=0;" parent="1" source="JG15J3TtPiXP2V4Br-xX-3" target="JG15J3TtPiXP2V4Br-xX-8" edge="1">
          <mxGeometry relative="1" as="geometry">
            <mxPoint x="1004" y="-550" as="targetPoint" />
          </mxGeometry>
        </mxCell>
        <mxCell id="JG15J3TtPiXP2V4Br-xX-3" value="保存ボタン押下" style="rounded=1;whiteSpace=wrap;html=1;fontSize=12;glass=0;strokeWidth=1;shadow=0;fillColor=#cce5ff;strokeColor=#36393d;" parent="1" vertex="1">
          <mxGeometry x="964" y="-760" width="120" height="40" as="geometry" />
        </mxCell>
        <mxCell id="JG15J3TtPiXP2V4Br-xX-4" value="Yes" style="rounded=0;html=1;jettySize=auto;orthogonalLoop=1;fontSize=11;endArrow=block;endFill=0;endSize=8;strokeWidth=1;shadow=0;labelBackgroundColor=none;edgeStyle=orthogonalEdgeStyle;" parent="1" source="JG15J3TtPiXP2V4Br-xX-5" target="JG15J3TtPiXP2V4Br-xX-85" edge="1">
          <mxGeometry y="20" relative="1" as="geometry">
            <mxPoint as="offset" />
            <mxPoint x="1024" y="100" as="targetPoint" />
          </mxGeometry>
        </mxCell>
        <mxCell id="JG15J3TtPiXP2V4Br-xX-5" value="チェック要否" style="rhombus;whiteSpace=wrap;html=1;shadow=0;fontFamily=Helvetica;fontSize=12;align=center;strokeWidth=1;spacing=6;spacingTop=-4;fillColor=#e51400;strokeColor=#B20000;fontColor=#ffffff;" parent="1" vertex="1">
          <mxGeometry x="974" y="-40" width="100" height="80" as="geometry" />
        </mxCell>
        <mxCell id="JG15J3TtPiXP2V4Br-xX-6" value="データ編集画面" style="rounded=1;whiteSpace=wrap;html=1;fontSize=12;glass=0;strokeWidth=1;shadow=0;fillColor=#cce5ff;strokeColor=#36393d;" parent="1" vertex="1">
          <mxGeometry x="964" y="-880" width="120" height="40" as="geometry" />
        </mxCell>
        <mxCell id="JG15J3TtPiXP2V4Br-xX-7" value="" style="rounded=0;html=1;jettySize=auto;orthogonalLoop=1;fontSize=11;endArrow=block;endFill=0;endSize=8;strokeWidth=1;shadow=0;labelBackgroundColor=none;edgeStyle=orthogonalEdgeStyle;exitX=0.5;exitY=1;exitDx=0;exitDy=0;" parent="1" source="JG15J3TtPiXP2V4Br-xX-6" edge="1">
          <mxGeometry relative="1" as="geometry">
            <mxPoint x="1034" y="-710" as="sourcePoint" />
            <mxPoint x="1024" y="-760" as="targetPoint" />
          </mxGeometry>
        </mxCell>
        <mxCell id="JG15J3TtPiXP2V4Br-xX-8" value="component.ftl" style="rounded=1;whiteSpace=wrap;html=1;fontSize=12;glass=0;strokeWidth=1;shadow=0;fillColor=#cce5ff;strokeColor=#36393d;" parent="1" vertex="1">
          <mxGeometry x="964" y="-640" width="120" height="40" as="geometry" />
        </mxCell>
        <mxCell id="JG15J3TtPiXP2V4Br-xX-9" value="&lt;span style=&quot;color: rgb(255 , 85 , 23)&quot;&gt;&amp;lt;#assign contentFooter&amp;gt;&lt;/span&gt;&lt;font color=&quot;#ff270f&quot; face=&quot;consolas, lucida console, courier new, monospace&quot;&gt;&lt;br&gt;&lt;/font&gt;&amp;lt;@component.updateWorkItemPanel object=&quot;workItem&quot; formId=&quot;workItemForm&quot;&amp;gt;&lt;br&gt;&amp;lt;/@component.updateWorkItemPanel&amp;gt;&lt;br&gt;&lt;span style=&quot;color: rgb(255 , 85 , 23)&quot;&gt;&amp;lt;/#assign&amp;gt;&lt;/span&gt;" style="text;html=1;strokeColor=none;fillColor=none;align=left;verticalAlign=middle;whiteSpace=wrap;rounded=0;" parent="1" vertex="1">
          <mxGeometry x="1039" y="-710" width="460" height="60" as="geometry" />
        </mxCell>
        <mxCell id="JG15J3TtPiXP2V4Br-xX-10" value="開始" style="rounded=1;whiteSpace=wrap;html=1;fontSize=12;glass=0;strokeWidth=1;shadow=0;fillColor=#fff2cc;strokeColor=#d6b656;" parent="1" vertex="1">
          <mxGeometry x="964" y="-1000" width="120" height="40" as="geometry" />
        </mxCell>
        <mxCell id="JG15J3TtPiXP2V4Br-xX-11" value="" style="rounded=0;html=1;jettySize=auto;orthogonalLoop=1;fontSize=11;endArrow=block;endFill=0;endSize=8;strokeWidth=1;shadow=0;labelBackgroundColor=none;edgeStyle=orthogonalEdgeStyle;exitX=0.5;exitY=1;exitDx=0;exitDy=0;" parent="1" source="JG15J3TtPiXP2V4Br-xX-6" edge="1">
          <mxGeometry relative="1" as="geometry">
            <mxPoint x="1024" y="-840" as="sourcePoint" />
            <mxPoint x="1024" y="-760" as="targetPoint" />
            <Array as="points">
              <mxPoint x="1024" y="-830" />
              <mxPoint x="1024" y="-830" />
            </Array>
          </mxGeometry>
        </mxCell>
        <mxCell id="JG15J3TtPiXP2V4Br-xX-12" value="" style="rounded=0;html=1;jettySize=auto;orthogonalLoop=1;fontSize=11;endArrow=block;endFill=0;endSize=8;strokeWidth=1;shadow=0;labelBackgroundColor=none;edgeStyle=orthogonalEdgeStyle;exitX=0.5;exitY=1;exitDx=0;exitDy=0;" parent="1" source="JG15J3TtPiXP2V4Br-xX-10" edge="1">
          <mxGeometry relative="1" as="geometry">
            <mxPoint x="1034" y="-830" as="sourcePoint" />
            <mxPoint x="1024" y="-880" as="targetPoint" />
            <Array as="points">
              <mxPoint x="1024" y="-920" />
              <mxPoint x="1024" y="-920" />
            </Array>
          </mxGeometry>
        </mxCell>
        <mxCell id="JG15J3TtPiXP2V4Br-xX-13" value="&lt;font color=&quot;#ff5517&quot;&gt;&amp;lt;button class=&quot;btn btn_save_data&quot; id=&quot;saveButton&quot; data-form_id=&quot;${formId}&quot; ${PermissionUtil.getAccessRightItem(PermissionId.ID_SAVE)} ${editButtonHTMLDisable}&amp;gt;&lt;/font&gt;&lt;br&gt;&amp;lt;@spring.message code=&#39;button.saveTemplate&#39;/&amp;gt;&lt;br&gt;&lt;span style=&quot;color: rgb(255 , 85 , 23)&quot;&gt;&amp;lt;/button&amp;gt;&lt;/span&gt;" style="text;html=1;strokeColor=none;fillColor=none;align=left;verticalAlign=middle;whiteSpace=wrap;rounded=0;" parent="1" vertex="1">
          <mxGeometry x="1039" y="-590" width="901" height="50" as="geometry" />
        </mxCell>
        <mxCell id="JG15J3TtPiXP2V4Br-xX-14" value="" style="rounded=0;html=1;jettySize=auto;orthogonalLoop=1;fontSize=11;endArrow=block;endFill=0;endSize=8;strokeWidth=1;shadow=0;labelBackgroundColor=none;edgeStyle=orthogonalEdgeStyle;entryX=0.5;entryY=0;entryDx=0;entryDy=0;" parent="1" target="JG15J3TtPiXP2V4Br-xX-15" edge="1">
          <mxGeometry relative="1" as="geometry">
            <mxPoint x="1024" y="-600" as="sourcePoint" />
            <mxPoint x="1004" y="-430" as="targetPoint" />
          </mxGeometry>
        </mxCell>
        <mxCell id="JG15J3TtPiXP2V4Br-xX-15" value="dataEditing.js:&lt;br&gt;saveTemplateファンクション" style="rounded=1;whiteSpace=wrap;html=1;fontSize=12;glass=0;strokeWidth=1;shadow=0;fillColor=#ffff88;strokeColor=#36393d;" parent="1" vertex="1">
          <mxGeometry x="942" y="-520" width="164" height="40" as="geometry" />
        </mxCell>
        <mxCell id="JG15J3TtPiXP2V4Br-xX-17" value="" style="rounded=0;html=1;jettySize=auto;orthogonalLoop=1;fontSize=11;endArrow=block;endFill=0;endSize=8;strokeWidth=1;shadow=0;labelBackgroundColor=none;edgeStyle=orthogonalEdgeStyle;entryX=0.5;entryY=0;entryDx=0;entryDy=0;" parent="1" target="JG15J3TtPiXP2V4Br-xX-18" edge="1">
          <mxGeometry relative="1" as="geometry">
            <mxPoint x="1024" y="-480" as="sourcePoint" />
            <mxPoint x="1004" y="-310" as="targetPoint" />
          </mxGeometry>
        </mxCell>
        <mxCell id="JG15J3TtPiXP2V4Br-xX-18" value="workItemList.ftl" style="rounded=1;whiteSpace=wrap;html=1;fontSize=12;glass=0;strokeWidth=1;shadow=0;fillColor=#cce5ff;strokeColor=#36393d;" parent="1" vertex="1">
          <mxGeometry x="964" y="-400" width="120" height="40" as="geometry" />
        </mxCell>
        <mxCell id="JG15J3TtPiXP2V4Br-xX-19" value="" style="rounded=0;html=1;jettySize=auto;orthogonalLoop=1;fontSize=11;endArrow=block;endFill=0;endSize=8;strokeWidth=1;shadow=0;labelBackgroundColor=none;edgeStyle=orthogonalEdgeStyle;entryX=0.5;entryY=0;entryDx=0;entryDy=0;" parent="1" target="JG15J3TtPiXP2V4Br-xX-20" edge="1">
          <mxGeometry relative="1" as="geometry">
            <mxPoint x="1024" y="-360" as="sourcePoint" />
            <mxPoint x="1004" y="-190" as="targetPoint" />
          </mxGeometry>
        </mxCell>
        <mxCell id="JG15J3TtPiXP2V4Br-xX-20" value="dataEditing.js" style="rounded=1;whiteSpace=wrap;html=1;fontSize=12;glass=0;strokeWidth=1;shadow=0;fillColor=#ffff88;strokeColor=#36393d;" parent="1" vertex="1">
          <mxGeometry x="964" y="-280" width="120" height="40" as="geometry" />
        </mxCell>
        <mxCell id="JG15J3TtPiXP2V4Br-xX-21" value="&lt;b style=&quot;color: rgb(255 , 85 , 23)&quot;&gt;url&lt;/b&gt;&lt;br&gt;&lt;b&gt;/workItem/&lt;/b&gt;" style="text;html=1;strokeColor=none;fillColor=none;align=left;verticalAlign=middle;whiteSpace=wrap;rounded=0;" parent="1" vertex="1">
          <mxGeometry x="1044" y="-464.5" width="156" height="40" as="geometry" />
        </mxCell>
        <mxCell id="JG15J3TtPiXP2V4Br-xX-22" value="チェックフラグ取得" style="rounded=1;whiteSpace=wrap;html=1;fontSize=12;glass=0;strokeWidth=1;shadow=0;fillColor=#e51400;strokeColor=#B20000;fontColor=#ffffff;" parent="1" vertex="1">
          <mxGeometry x="964" y="-160" width="120" height="40" as="geometry" />
        </mxCell>
        <mxCell id="JG15J3TtPiXP2V4Br-xX-23" value="" style="rounded=0;html=1;jettySize=auto;orthogonalLoop=1;fontSize=11;endArrow=block;endFill=0;endSize=8;strokeWidth=1;shadow=0;labelBackgroundColor=none;edgeStyle=orthogonalEdgeStyle;entryX=0.5;entryY=0;entryDx=0;entryDy=0;exitX=0.5;exitY=1;exitDx=0;exitDy=0;" parent="1" source="JG15J3TtPiXP2V4Br-xX-20" target="JG15J3TtPiXP2V4Br-xX-22" edge="1">
          <mxGeometry relative="1" as="geometry">
            <mxPoint x="1034" y="-350" as="sourcePoint" />
            <mxPoint x="1034" y="-270" as="targetPoint" />
          </mxGeometry>
        </mxCell>
        <mxCell id="JG15J3TtPiXP2V4Br-xX-24" value="&lt;font color=&quot;#ff9933&quot; style=&quot;font-weight: bold&quot;&gt;追加内容&lt;/font&gt;&lt;br&gt;１、チェックフラグを定数から取得して、セッションに設定する。" style="text;html=1;strokeColor=#6c8ebf;fillColor=#dae8fc;align=left;verticalAlign=top;whiteSpace=wrap;rounded=0;horizontal=1;" parent="1" vertex="1">
          <mxGeometry x="1120" y="-522.5" width="470" height="45" as="geometry" />
        </mxCell>
        <mxCell id="JG15J3TtPiXP2V4Br-xX-25" value="" style="rounded=0;html=1;jettySize=auto;orthogonalLoop=1;fontSize=11;endArrow=block;endFill=0;endSize=8;strokeWidth=1;shadow=0;labelBackgroundColor=none;edgeStyle=orthogonalEdgeStyle;entryX=0.5;entryY=0;entryDx=0;entryDy=0;exitX=0.5;exitY=1;exitDx=0;exitDy=0;" parent="1" source="JG15J3TtPiXP2V4Br-xX-22" target="JG15J3TtPiXP2V4Br-xX-5" edge="1">
          <mxGeometry relative="1" as="geometry">
            <mxPoint x="1034" y="-230" as="sourcePoint" />
            <mxPoint x="1034" y="-150" as="targetPoint" />
          </mxGeometry>
        </mxCell>
        <mxCell id="JG15J3TtPiXP2V4Br-xX-29" value="保存時エラーチェック" style="rounded=1;whiteSpace=wrap;html=1;fontSize=12;glass=0;strokeWidth=1;shadow=0;fillColor=#d80073;strokeColor=#A50040;fontColor=#ffffff;" parent="1" vertex="1">
          <mxGeometry x="964" y="285" width="124" height="40" as="geometry" />
        </mxCell>
        <mxCell id="JG15J3TtPiXP2V4Br-xX-32" value="チェック要否フラグ取得（&lt;b&gt;&lt;font color=&quot;#2121ff&quot;&gt;Ajax&lt;/font&gt;&lt;/b&gt;）" style="rounded=1;whiteSpace=wrap;html=1;fontSize=12;glass=0;strokeWidth=1;shadow=0;fillColor=#d80073;strokeColor=#A50040;fontColor=#ffffff;" parent="1" vertex="1">
          <mxGeometry x="964" y="-160" width="120" height="40" as="geometry" />
        </mxCell>
        <mxCell id="JG15J3TtPiXP2V4Br-xX-33" value="エラーを&lt;br&gt;チェックするか" style="rhombus;whiteSpace=wrap;html=1;shadow=0;fontFamily=Helvetica;fontSize=12;align=center;strokeWidth=1;spacing=6;spacingTop=-4;fillColor=#d80073;strokeColor=#A50040;fontColor=#ffffff;" parent="1" vertex="1">
          <mxGeometry x="974" y="-40" width="100" height="80" as="geometry" />
        </mxCell>
        <mxCell id="JG15J3TtPiXP2V4Br-xX-35" value="エラーメッセージ一覧の&lt;br&gt;値があるか" style="rhombus;whiteSpace=wrap;html=1;shadow=0;fontFamily=Helvetica;fontSize=12;align=center;strokeWidth=1;spacing=6;spacingTop=-4;fillColor=#d80073;strokeColor=#A50040;fontColor=#ffffff;" parent="1" vertex="1">
          <mxGeometry x="974" y="630" width="100" height="80" as="geometry" />
        </mxCell>
        <mxCell id="JG15J3TtPiXP2V4Br-xX-37" value="Yes" style="rounded=0;html=1;jettySize=auto;orthogonalLoop=1;fontSize=11;endArrow=block;endFill=0;endSize=8;strokeWidth=1;shadow=0;labelBackgroundColor=none;edgeStyle=orthogonalEdgeStyle;entryX=0.5;entryY=0;entryDx=0;entryDy=0;" parent="1" source="JG15J3TtPiXP2V4Br-xX-35" edge="1">
          <mxGeometry y="16" relative="1" as="geometry">
            <mxPoint as="offset" />
            <mxPoint x="1024" y="790" as="targetPoint" />
          </mxGeometry>
        </mxCell>
        <mxCell id="JG15J3TtPiXP2V4Br-xX-38" value="エラー情報表示" style="rounded=1;whiteSpace=wrap;html=1;fontSize=12;glass=0;strokeWidth=1;shadow=0;fillColor=#d80073;strokeColor=#A50040;fontColor=#ffffff;" parent="1" vertex="1">
          <mxGeometry x="964" y="790" width="120" height="40" as="geometry" />
        </mxCell>
        <mxCell id="JG15J3TtPiXP2V4Br-xX-43" value="" style="rounded=0;html=1;jettySize=auto;orthogonalLoop=1;fontSize=11;endArrow=block;endFill=0;endSize=8;strokeWidth=1;shadow=0;labelBackgroundColor=none;edgeStyle=orthogonalEdgeStyle;exitX=1;exitY=0.5;exitDx=0;exitDy=0;entryX=0;entryY=0.5;entryDx=0;entryDy=0;" parent="1" target="JG15J3TtPiXP2V4Br-xX-42" edge="1">
          <mxGeometry relative="1" as="geometry">
            <mxPoint x="1084" y="895" as="sourcePoint" />
            <mxPoint x="1250" y="850" as="targetPoint" />
            <Array as="points">
              <mxPoint x="1230" y="895" />
              <mxPoint x="1230" y="895" />
            </Array>
          </mxGeometry>
        </mxCell>
        <mxCell id="JG15J3TtPiXP2V4Br-xX-47" value="・チェック要否フラグ" style="text;html=1;strokeColor=none;fillColor=none;align=left;verticalAlign=top;whiteSpace=wrap;rounded=0;" parent="1" vertex="1">
          <mxGeometry x="1024" y="-90" width="136" height="20" as="geometry" />
        </mxCell>
        <mxCell id="JG15J3TtPiXP2V4Br-xX-49" value="saveErrorCheck" style="rounded=1;whiteSpace=wrap;html=1;fontSize=12;glass=0;strokeWidth=1;shadow=0;fillColor=#f5f5f5;strokeColor=#666666;gradientColor=#b3b3b3;" parent="1" vertex="1">
          <mxGeometry x="1308" y="285" width="120" height="40" as="geometry" />
        </mxCell>
        <mxCell id="JG15J3TtPiXP2V4Br-xX-50" value="" style="endArrow=classic;startArrow=classic;html=1;fontColor=#000000;entryX=0;entryY=0.5;entryDx=0;entryDy=0;exitX=1;exitY=0.5;exitDx=0;exitDy=0;" parent="1" source="JG15J3TtPiXP2V4Br-xX-29" target="JG15J3TtPiXP2V4Br-xX-49" edge="1">
          <mxGeometry width="50" height="50" relative="1" as="geometry">
            <mxPoint x="1596" y="335" as="sourcePoint" />
            <mxPoint x="1646" y="285" as="targetPoint" />
            <Array as="points">
              <mxPoint x="1230" y="305" />
            </Array>
          </mxGeometry>
        </mxCell>
        <mxCell id="JG15J3TtPiXP2V4Br-xX-51" value="&lt;b&gt;入力パラメータ&lt;/b&gt;&lt;br&gt;・ワークアイテム&lt;br&gt;・トークン&lt;br&gt;・エラーリスト" style="text;html=1;strokeColor=none;fillColor=none;align=left;verticalAlign=top;whiteSpace=wrap;rounded=0;" parent="1" vertex="1">
          <mxGeometry x="1120" y="230" width="106" height="55" as="geometry" />
        </mxCell>
        <mxCell id="JG15J3TtPiXP2V4Br-xX-52" value="&lt;b&gt;戻り値&lt;/b&gt;&lt;br&gt;・エラーメッセージ一覧" style="text;html=1;strokeColor=none;fillColor=none;align=left;verticalAlign=top;whiteSpace=wrap;rounded=0;" parent="1" vertex="1">
          <mxGeometry x="1120" y="315" width="150" height="40" as="geometry" />
        </mxCell>
        <mxCell id="JG15J3TtPiXP2V4Br-xX-56" value="" style="endArrow=classic;startArrow=classic;html=1;fontColor=#000000;exitX=1;exitY=0.5;exitDx=0;exitDy=0;entryX=0;entryY=0.5;entryDx=0;entryDy=0;" parent="1" source="JG15J3TtPiXP2V4Br-xX-32" target="JG15J3TtPiXP2V4Br-xX-90" edge="1">
          <mxGeometry width="50" height="50" relative="1" as="geometry">
            <mxPoint x="1120" y="-60" as="sourcePoint" />
            <mxPoint x="1860" y="-50" as="targetPoint" />
            <Array as="points" />
          </mxGeometry>
        </mxCell>
        <mxCell id="JG15J3TtPiXP2V4Br-xX-57" value="終了" style="rounded=1;whiteSpace=wrap;html=1;fontSize=12;glass=0;strokeWidth=1;shadow=0;fillColor=#cdeb8b;strokeColor=#36393d;" parent="1" vertex="1">
          <mxGeometry x="964" y="950" width="120" height="40" as="geometry" />
        </mxCell>
        <mxCell id="JG15J3TtPiXP2V4Br-xX-58" value="" style="rounded=0;html=1;jettySize=auto;orthogonalLoop=1;fontSize=11;endArrow=block;endFill=0;endSize=8;strokeWidth=1;shadow=0;labelBackgroundColor=none;edgeStyle=orthogonalEdgeStyle;entryX=0.5;entryY=0;entryDx=0;entryDy=0;" parent="1" edge="1" target="JG15J3TtPiXP2V4Br-xX-57" source="JG15J3TtPiXP2V4Br-xX-38">
          <mxGeometry relative="1" as="geometry">
            <mxPoint x="1130" y="870" as="sourcePoint" />
            <mxPoint x="1140" y="960" as="targetPoint" />
            <Array as="points" />
          </mxGeometry>
        </mxCell>
        <mxCell id="JG15J3TtPiXP2V4Br-xX-59" value="" style="rounded=0;html=1;jettySize=auto;orthogonalLoop=1;fontSize=11;endArrow=block;endFill=0;endSize=8;strokeWidth=1;shadow=0;labelBackgroundColor=none;edgeStyle=orthogonalEdgeStyle;entryX=0;entryY=0.5;entryDx=0;entryDy=0;" parent="1" source="JG15J3TtPiXP2V4Br-xX-95" edge="1" target="JG15J3TtPiXP2V4Br-xX-57">
          <mxGeometry relative="1" as="geometry">
            <mxPoint x="1616" y="-440" as="sourcePoint" />
            <mxPoint x="720" y="900" as="targetPoint" />
            <Array as="points">
              <mxPoint x="490" y="970" />
            </Array>
          </mxGeometry>
        </mxCell>
        <mxCell id="JG15J3TtPiXP2V4Br-xX-60" value="" style="group;" parent="1" vertex="1" connectable="0">
          <mxGeometry x="40" y="-1120" width="215" height="400" as="geometry" />
        </mxCell>
        <mxCell id="JG15J3TtPiXP2V4Br-xX-61" value="" style="rounded=0;whiteSpace=wrap;html=1;dashed=1;fillColor=none;strokeColor=#FF0000;" parent="JG15J3TtPiXP2V4Br-xX-60" vertex="1">
          <mxGeometry y="25.53191489361702" width="160" height="374.468085106383" as="geometry" />
        </mxCell>
        <mxCell id="JG15J3TtPiXP2V4Br-xX-62" value="既存" style="rounded=1;whiteSpace=wrap;html=1;fontSize=12;glass=0;strokeWidth=1;shadow=0;fillColor=#cce5ff;strokeColor=#36393d;" parent="JG15J3TtPiXP2V4Br-xX-60" vertex="1">
          <mxGeometry x="15" y="42.5531914893617" width="95" height="34.04255319148936" as="geometry" />
        </mxCell>
        <mxCell id="JG15J3TtPiXP2V4Br-xX-63" value="既存修正" style="rounded=1;whiteSpace=wrap;html=1;fontSize=12;glass=0;strokeWidth=1;shadow=0;fillColor=#ffff88;strokeColor=#36393d;" parent="JG15J3TtPiXP2V4Br-xX-60" vertex="1">
          <mxGeometry x="15" y="85.1063829787234" width="95" height="34.04255319148936" as="geometry" />
        </mxCell>
        <mxCell id="JG15J3TtPiXP2V4Br-xX-64" value="&lt;i&gt;説明&lt;/i&gt;" style="text;html=1;strokeColor=none;fillColor=none;align=left;verticalAlign=middle;whiteSpace=wrap;rounded=0;dashed=1;fontStyle=1" parent="JG15J3TtPiXP2V4Br-xX-60" vertex="1">
          <mxGeometry y="8.51063829787234" width="30" height="17.02127659574468" as="geometry" />
        </mxCell>
        <mxCell id="JG15J3TtPiXP2V4Br-xX-65" value="修正対象" style="text;html=1;strokeColor=none;fillColor=none;align=left;verticalAlign=middle;whiteSpace=wrap;rounded=0;dashed=1;fontStyle=1;fontColor=#FF8000;" parent="JG15J3TtPiXP2V4Br-xX-60" vertex="1">
          <mxGeometry x="15" y="246.80851063829786" width="60" height="17.02127659574468" as="geometry" />
        </mxCell>
        <mxCell id="JG15J3TtPiXP2V4Br-xX-66" value="追加対象" style="text;html=1;strokeColor=none;fillColor=none;align=left;verticalAlign=middle;whiteSpace=wrap;rounded=0;dashed=1;fontStyle=1;fontColor=#FF8000;" parent="JG15J3TtPiXP2V4Br-xX-60" vertex="1">
          <mxGeometry x="15" y="280.8510638297872" width="60" height="17.02127659574468" as="geometry" />
        </mxCell>
        <mxCell id="JG15J3TtPiXP2V4Br-xX-67" value="製品チーム対象外" style="text;html=1;strokeColor=none;fillColor=none;align=left;verticalAlign=middle;whiteSpace=wrap;rounded=0;dashed=1;fontStyle=1;fontColor=#FF8000;" parent="JG15J3TtPiXP2V4Br-xX-60" vertex="1">
          <mxGeometry x="15" y="314.8936170212766" width="115" height="17.02127659574468" as="geometry" />
        </mxCell>
        <mxCell id="JG15J3TtPiXP2V4Br-xX-68" value="製品チーム対象外" style="rounded=1;whiteSpace=wrap;html=1;fontSize=12;glass=0;strokeWidth=1;shadow=0;fillColor=#f5f5f5;strokeColor=#666666;gradientColor=#b3b3b3;" parent="JG15J3TtPiXP2V4Br-xX-60" vertex="1">
          <mxGeometry x="15" y="170.2127659574468" width="95" height="34.04255319148936" as="geometry" />
        </mxCell>
        <mxCell id="JG15J3TtPiXP2V4Br-xX-69" value="新規追加" style="rounded=1;whiteSpace=wrap;html=1;fontSize=12;glass=0;strokeWidth=1;shadow=0;fillColor=#d80073;strokeColor=#A50040;fontColor=#ffffff;" parent="JG15J3TtPiXP2V4Br-xX-60" vertex="1">
          <mxGeometry x="15" y="127.65957446808511" width="95" height="34.04255319148936" as="geometry" />
        </mxCell>
        <mxCell id="JG15J3TtPiXP2V4Br-xX-70" value="修正対象" style="text;html=1;strokeColor=none;fillColor=none;align=left;verticalAlign=middle;whiteSpace=wrap;rounded=0;dashed=1;fontStyle=1;fontColor=#FF8000;" parent="1" vertex="1">
          <mxGeometry x="964" y="-540" width="60" height="20" as="geometry" />
        </mxCell>
        <mxCell id="JG15J3TtPiXP2V4Br-xX-71" value="修正対象" style="text;html=1;strokeColor=none;fillColor=none;align=left;verticalAlign=middle;whiteSpace=wrap;rounded=0;dashed=1;fontStyle=1;fontColor=#FF8000;" parent="1" vertex="1">
          <mxGeometry x="964" y="-300" width="60" height="20" as="geometry" />
        </mxCell>
        <mxCell id="JG15J3TtPiXP2V4Br-xX-72" value="追加対象" style="text;html=1;strokeColor=none;fillColor=none;align=left;verticalAlign=middle;whiteSpace=wrap;rounded=0;dashed=1;fontStyle=1;fontColor=#FF8000;" parent="1" vertex="1">
          <mxGeometry x="964" y="-180" width="60" height="20" as="geometry" />
        </mxCell>
        <mxCell id="JG15J3TtPiXP2V4Br-xX-73" value="追加対象" style="text;html=1;strokeColor=none;fillColor=none;align=left;verticalAlign=middle;whiteSpace=wrap;rounded=0;dashed=1;fontStyle=1;fontColor=#FF8000;" parent="1" vertex="1">
          <mxGeometry x="964" y="-60" width="60" height="20" as="geometry" />
        </mxCell>
        <mxCell id="JG15J3TtPiXP2V4Br-xX-76" value="追加対象" style="text;html=1;strokeColor=none;fillColor=none;align=left;verticalAlign=middle;whiteSpace=wrap;rounded=0;dashed=1;fontStyle=1;fontColor=#FF8000;" parent="1" vertex="1">
          <mxGeometry x="962" y="265" width="60" height="20" as="geometry" />
        </mxCell>
        <mxCell id="JG15J3TtPiXP2V4Br-xX-77" value="追加対象" style="text;html=1;strokeColor=none;fillColor=none;align=left;verticalAlign=middle;whiteSpace=wrap;rounded=0;dashed=1;fontStyle=1;fontColor=#FF8000;" parent="1" vertex="1">
          <mxGeometry x="964" y="610" width="60" height="20" as="geometry" />
        </mxCell>
        <mxCell id="JG15J3TtPiXP2V4Br-xX-78" value="追加対象" style="text;html=1;strokeColor=none;fillColor=none;align=left;verticalAlign=middle;whiteSpace=wrap;rounded=0;dashed=1;fontStyle=1;fontColor=#FF8000;" parent="1" vertex="1">
          <mxGeometry x="964" y="770" width="60" height="20" as="geometry" />
        </mxCell>
        <mxCell id="JG15J3TtPiXP2V4Br-xX-80" value="追加対象" style="text;html=1;strokeColor=none;fillColor=none;align=left;verticalAlign=middle;whiteSpace=wrap;rounded=0;dashed=1;fontStyle=1;fontColor=#FF8000;" parent="1" vertex="1">
          <mxGeometry x="964" y="430" width="60" height="20" as="geometry" />
        </mxCell>
        <mxCell id="JG15J3TtPiXP2V4Br-xX-81" value="画面ロード" style="text;html=1;strokeColor=none;fillColor=none;align=left;verticalAlign=middle;whiteSpace=wrap;rounded=0;" parent="1" vertex="1">
          <mxGeometry x="1044" y="-340" width="90" height="30" as="geometry" />
        </mxCell>
        <mxCell id="JG15J3TtPiXP2V4Br-xX-82" value="&lt;b&gt;入力パラメータ&lt;/b&gt;&lt;br&gt;・チェック要否フラグ" style="text;html=1;strokeColor=none;fillColor=none;align=left;verticalAlign=top;whiteSpace=wrap;rounded=0;" parent="1" vertex="1">
          <mxGeometry x="1141" y="-180" width="150" height="40" as="geometry" />
        </mxCell>
        <mxCell id="JG15J3TtPiXP2V4Br-xX-83" value="&lt;b&gt;戻り値&lt;/b&gt;&lt;br&gt;・チェック要否フラグ値" style="text;html=1;strokeColor=none;fillColor=none;align=left;verticalAlign=top;whiteSpace=wrap;rounded=0;" parent="1" vertex="1">
          <mxGeometry x="1140" y="-140" width="150" height="40" as="geometry" />
        </mxCell>
        <mxCell id="JG15J3TtPiXP2V4Br-xX-84" value="&lt;span style=&quot;text-align: center&quot;&gt;onload事件&lt;/span&gt;" style="text;html=1;strokeColor=none;fillColor=none;align=left;verticalAlign=middle;whiteSpace=wrap;rounded=0;" parent="1" vertex="1">
          <mxGeometry x="1039" y="-220" width="90" height="30" as="geometry" />
        </mxCell>
        <mxCell id="JG15J3TtPiXP2V4Br-xX-85" value="ポップアップ表示" style="rounded=1;whiteSpace=wrap;html=1;fontSize=12;glass=0;strokeWidth=1;shadow=0;fillColor=#d80073;strokeColor=#A50040;fontColor=#ffffff;" parent="1" vertex="1">
          <mxGeometry x="964" y="130" width="120" height="40" as="geometry" />
        </mxCell>
        <mxCell id="JG15J3TtPiXP2V4Br-xX-88" value="ポップアップ非表示" style="rounded=1;whiteSpace=wrap;html=1;fontSize=12;glass=0;strokeWidth=1;shadow=0;fillColor=#d80073;strokeColor=#A50040;fontColor=#ffffff;" parent="1" vertex="1">
          <mxGeometry x="964" y="450" width="120" height="40" as="geometry" />
        </mxCell>
        <mxCell id="JG15J3TtPiXP2V4Br-xX-90" value="&lt;span&gt;DataEditingController&lt;/span&gt;&lt;br&gt;&lt;i&gt;&lt;b&gt;AjaxXXX&lt;/b&gt;方法&lt;/i&gt;" style="rounded=1;whiteSpace=wrap;html=1;fontSize=12;glass=0;strokeWidth=1;shadow=0;fillColor=#d80073;strokeColor=#A50040;fontColor=#ffffff;" parent="1" vertex="1">
          <mxGeometry x="1347" y="-160" width="120" height="40" as="geometry" />
        </mxCell>
        <mxCell id="JG15J3TtPiXP2V4Br-xX-93" value="No" style="edgeStyle=orthogonalEdgeStyle;rounded=0;html=1;jettySize=auto;orthogonalLoop=1;fontSize=11;endArrow=block;endFill=0;endSize=8;strokeWidth=1;shadow=0;labelBackgroundColor=none;" parent="1" source="JG15J3TtPiXP2V4Br-xX-35" edge="1">
          <mxGeometry x="-0.6225" y="10" relative="1" as="geometry">
            <mxPoint as="offset" />
            <mxPoint x="970" y="675" as="sourcePoint" />
            <mxPoint x="540" y="669" as="targetPoint" />
            <Array as="points">
              <mxPoint x="660" y="669" />
              <mxPoint x="660" y="669" />
            </Array>
          </mxGeometry>
        </mxCell>
        <mxCell id="JG15J3TtPiXP2V4Br-xX-95" value="画面正常表示" style="rounded=1;whiteSpace=wrap;html=1;fontSize=12;glass=0;strokeWidth=1;shadow=0;fillColor=#d80073;strokeColor=#A50040;fontColor=#ffffff;" parent="1" vertex="1">
          <mxGeometry x="425" y="649" width="120" height="40" as="geometry" />
        </mxCell>
        <mxCell id="JG15J3TtPiXP2V4Br-xX-96" value="製品チーム対象外" style="text;html=1;strokeColor=none;fillColor=none;align=left;verticalAlign=middle;whiteSpace=wrap;rounded=0;dashed=1;fontStyle=1;fontColor=#FF8000;" parent="1" vertex="1">
          <mxGeometry x="1282.5" y="245" width="115" height="20" as="geometry" />
        </mxCell>
        <mxCell id="JG15J3TtPiXP2V4Br-xX-97" value="No" style="edgeStyle=orthogonalEdgeStyle;rounded=0;html=1;jettySize=auto;orthogonalLoop=1;fontSize=11;endArrow=block;endFill=0;endSize=8;strokeWidth=1;shadow=0;labelBackgroundColor=none;exitX=0;exitY=0.5;exitDx=0;exitDy=0;" parent="1" source="JG15J3TtPiXP2V4Br-xX-33" edge="1" target="JG15J3TtPiXP2V4Br-xX-95">
          <mxGeometry x="-0.7736" y="-10" relative="1" as="geometry">
            <mxPoint as="offset" />
            <mxPoint x="428.33000000000004" y="330" as="sourcePoint" />
            <mxPoint x="490" y="630" as="targetPoint" />
            <Array as="points">
              <mxPoint x="490" />
            </Array>
          </mxGeometry>
        </mxCell>
        <mxCell id="JG15J3TtPiXP2V4Br-xX-101" value="追加対象" style="text;html=1;strokeColor=none;fillColor=none;align=left;verticalAlign=middle;whiteSpace=wrap;rounded=0;dashed=1;fontStyle=1;fontColor=#FF8000;" parent="1" vertex="1">
          <mxGeometry x="1347" y="-180" width="60" height="20" as="geometry" />
        </mxCell>
        <mxCell id="JG15J3TtPiXP2V4Br-xX-102" value="追加対象" style="text;html=1;strokeColor=none;fillColor=none;align=left;verticalAlign=middle;whiteSpace=wrap;rounded=0;dashed=1;fontStyle=1;fontColor=#FF8000;" parent="1" vertex="1">
          <mxGeometry x="425" y="630" width="60" height="20" as="geometry" />
        </mxCell>
        <mxCell id="JG15J3TtPiXP2V4Br-xX-103" value="追加対象" style="text;html=1;strokeColor=none;fillColor=none;align=left;verticalAlign=middle;whiteSpace=wrap;rounded=0;dashed=1;fontStyle=1;fontColor=#FF8000;" parent="1" vertex="1">
          <mxGeometry x="962" y="110" width="60" height="20" as="geometry" />
        </mxCell>
        <mxCell id="JG15J3TtPiXP2V4Br-xX-105" value="" style="rounded=0;html=1;jettySize=auto;orthogonalLoop=1;fontSize=11;endArrow=block;endFill=0;endSize=8;strokeWidth=1;shadow=0;labelBackgroundColor=none;edgeStyle=orthogonalEdgeStyle;entryX=0.5;entryY=0;entryDx=0;entryDy=0;exitX=0;exitY=0.5;exitDx=0;exitDy=0;" parent="1" source="JG15J3TtPiXP2V4Br-xX-15" target="Zz7lJdWrNZS8ZDqdvRc8-1" edge="1">
          <mxGeometry relative="1" as="geometry">
            <mxPoint x="880" y="-500" as="sourcePoint" />
            <mxPoint x="873.0000000000005" y="-460" as="targetPoint" />
            <Array as="points">
              <mxPoint x="755" y="-500" />
            </Array>
          </mxGeometry>
        </mxCell>
        <mxCell id="JG15J3TtPiXP2V4Br-xX-107" value="" style="rounded=0;html=1;jettySize=auto;orthogonalLoop=1;fontSize=11;endArrow=block;endFill=0;endSize=8;strokeWidth=1;shadow=0;labelBackgroundColor=none;edgeStyle=orthogonalEdgeStyle;exitX=1;exitY=0.5;exitDx=0;exitDy=0;" parent="1" source="Zz7lJdWrNZS8ZDqdvRc8-1" edge="1">
          <mxGeometry relative="1" as="geometry">
            <mxPoint x="946" y="-440" as="sourcePoint" />
            <mxPoint x="1020" y="-440" as="targetPoint" />
          </mxGeometry>
        </mxCell>
        <mxCell id="JG15J3TtPiXP2V4Br-xX-108" value="&lt;font color=&quot;#ff5517&quot;&gt;&lt;b&gt;ajax&lt;/b&gt;&lt;/font&gt;&lt;br&gt;&lt;b&gt;/workItem/updateTemplate&lt;/b&gt;" style="text;html=1;strokeColor=none;fillColor=none;align=left;verticalAlign=middle;whiteSpace=wrap;rounded=0;" parent="1" vertex="1">
          <mxGeometry x="720" y="-540" width="160" height="40" as="geometry" />
        </mxCell>
        <mxCell id="Zz7lJdWrNZS8ZDqdvRc8-1" value="DataEditingController.java:&lt;br&gt;&lt;i&gt;&lt;b&gt;updateTemplate&lt;/b&gt;&lt;/i&gt;方法" style="rounded=1;whiteSpace=wrap;html=1;fontSize=12;glass=0;strokeWidth=1;shadow=0;fillColor=#ffff88;strokeColor=#36393d;" vertex="1" parent="1">
          <mxGeometry x="680" y="-460" width="150" height="40" as="geometry" />
        </mxCell>
        <mxCell id="Zz7lJdWrNZS8ZDqdvRc8-2" value="修正対象" style="text;html=1;strokeColor=none;fillColor=none;align=left;verticalAlign=middle;whiteSpace=wrap;rounded=0;dashed=1;fontStyle=1;fontColor=#FF8000;" vertex="1" parent="1">
          <mxGeometry x="680" y="-480" width="60" height="20" as="geometry" />
        </mxCell>
        <mxCell id="Zz7lJdWrNZS8ZDqdvRc8-5" value="" style="rounded=0;html=1;jettySize=auto;orthogonalLoop=1;fontSize=11;endArrow=block;endFill=0;endSize=8;strokeWidth=1;shadow=0;labelBackgroundColor=none;edgeStyle=orthogonalEdgeStyle;exitX=0.5;exitY=1;exitDx=0;exitDy=0;" edge="1" parent="1" source="JG15J3TtPiXP2V4Br-xX-85" target="Zz7lJdWrNZS8ZDqdvRc8-14">
          <mxGeometry relative="1" as="geometry">
            <mxPoint x="779.9999999999995" y="226.99999999999955" as="sourcePoint" />
            <mxPoint x="800" y="150" as="targetPoint" />
          </mxGeometry>
        </mxCell>
        <mxCell id="Zz7lJdWrNZS8ZDqdvRc8-14" value="保存時エラーチェック" style="rounded=1;whiteSpace=wrap;html=1;fontSize=12;glass=0;strokeWidth=1;shadow=0;fillColor=#d80073;strokeColor=#A50040;fontColor=#ffffff;" vertex="1" parent="1">
          <mxGeometry x="962" y="285" width="124" height="40" as="geometry" />
        </mxCell>
        <mxCell id="Zz7lJdWrNZS8ZDqdvRc8-17" value="" style="rounded=0;html=1;jettySize=auto;orthogonalLoop=1;fontSize=11;endArrow=block;endFill=0;endSize=8;strokeWidth=1;shadow=0;labelBackgroundColor=none;edgeStyle=orthogonalEdgeStyle;exitX=0.5;exitY=1;exitDx=0;exitDy=0;" edge="1" parent="1" source="Zz7lJdWrNZS8ZDqdvRc8-14" target="JG15J3TtPiXP2V4Br-xX-88">
          <mxGeometry relative="1" as="geometry">
            <mxPoint x="900" y="345" as="sourcePoint" />
            <mxPoint x="1024" y="440" as="targetPoint" />
            <Array as="points" />
          </mxGeometry>
        </mxCell>
        <mxCell id="Zz7lJdWrNZS8ZDqdvRc8-20" value="" style="rounded=0;html=1;jettySize=auto;orthogonalLoop=1;fontSize=11;endArrow=block;endFill=0;endSize=8;strokeWidth=1;shadow=0;labelBackgroundColor=none;edgeStyle=orthogonalEdgeStyle;exitX=0.5;exitY=1;exitDx=0;exitDy=0;" edge="1" parent="1" source="JG15J3TtPiXP2V4Br-xX-88" target="JG15J3TtPiXP2V4Br-xX-35">
          <mxGeometry relative="1" as="geometry">
            <mxPoint x="1024" y="540" as="sourcePoint" />
            <mxPoint x="1024" y="640" as="targetPoint" />
            <Array as="points" />
          </mxGeometry>
        </mxCell>
        <mxCell id="Zz7lJdWrNZS8ZDqdvRc8-23" value="・エラーがない場合" style="text;html=1;strokeColor=none;fillColor=none;align=left;verticalAlign=top;whiteSpace=wrap;rounded=0;" vertex="1" parent="1">
          <mxGeometry x="1024" y="540" width="120" height="30" as="geometry" />
        </mxCell>
      </root>
    </mxGraphModel>
  </diagram>
</mxfile>
